<svg version="1.1" id="Layer_1" xmlns="http://www.w3.org/2000/svg" xmlns:xlink="http://www.w3.org/1999/xlink" x="0px" y="0px"
	 width="100%" viewBox="0 0 865 865" enable-background="new 0 0 865 865" xml:space="preserve">
<path fill="#0279BE" opacity="1.000000" stroke="none" 
	d="
M579.000000,866.000000 
	C386.000061,866.000000 193.500122,866.000000 1.000129,866.000000 
	C1.000086,577.666809 1.000086,289.333618 1.000043,1.000323 
	C289.333099,1.000215 577.666199,1.000215 865.999512,1.000108 
	C865.999634,289.333038 865.999634,577.666077 865.999817,865.999512 
	C770.500000,866.000000 675.000000,866.000000 579.000000,866.000000 
M490.969788,162.761215 
	C490.996460,136.121216 491.035492,109.481224 491.044403,82.841217 
	C491.048553,70.419525 491.025452,70.139732 478.757874,69.993004 
	C454.116791,69.698296 429.494415,69.982567 405.503693,76.825531 
	C379.004120,84.384094 358.678467,99.522003 347.130280,125.061554 
	C340.135437,140.531067 337.423126,157.140701 334.674316,174.340729 
	C317.421173,182.547943 299.424835,189.500076 283.052490,199.194794 
	C231.369034,229.798676 192.776840,272.716217 166.911194,327.021271 
	C142.979355,377.266357 135.474472,430.211639 141.409363,485.171967 
	C145.403046,522.155701 156.895569,556.892700 174.688919,589.621521 
	C205.893188,647.018372 251.230896,689.315125 310.238647,716.984863 
	C322.103943,722.548706 334.531708,726.913025 346.914612,732.580078 
	C348.934082,736.777039 350.751709,741.085876 353.005371,745.153076 
	C369.119934,774.235168 395.052155,789.251709 426.593384,795.910095 
	C450.214294,800.896545 474.128510,801.674988 498.181824,800.259338 
	C526.542969,798.590210 554.458923,794.485840 581.776978,786.453552 
	C585.675537,785.307190 586.666443,783.573669 586.646973,779.859985 
	C586.536804,758.862854 586.669189,737.864502 586.613159,716.866882 
	C586.598572,711.387085 586.206604,705.908386 586.438599,699.997803 
	C587.232788,699.395264 587.993408,698.741455 588.825989,698.197693 
	C617.392456,679.542114 642.882568,657.219299 663.305786,629.990540 
	C721.177979,552.833557 738.851746,467.137390 713.975037,373.628662 
	C695.974915,305.968445 656.856140,252.481018 600.298401,211.808441 
	C567.355835,188.118332 530.769470,172.045670 490.969788,162.761215 
z"/>
<path fill="#E7292B" opacity="1.000000" stroke="none" 
	d="
M346.700134,731.830383 
	C334.531708,726.913025 322.103943,722.548706 310.238647,716.984863 
	C251.230896,689.315125 205.893188,647.018372 174.688919,589.621521 
	C156.895569,556.892700 145.403046,522.155701 141.409363,485.171967 
	C135.474472,430.211639 142.979355,377.266357 166.911194,327.021271 
	C192.776840,272.716217 231.369034,229.798676 283.052490,199.194794 
	C299.424835,189.500076 317.421173,182.547943 335.324646,174.086945 
	C337.255402,173.492645 338.558655,173.220581 339.812897,172.801636 
	C376.567688,160.524963 414.320068,155.972229 452.897614,158.834991 
	C465.629272,159.779770 478.265472,162.010773 490.945343,163.653671 
	C530.769470,172.045670 567.355835,188.118332 600.298401,211.808441 
	C656.856140,252.481018 695.974915,305.968445 713.975037,373.628662 
	C738.851746,467.137390 721.177979,552.833557 663.305786,629.990540 
	C642.882568,657.219299 617.392456,679.542114 588.825989,698.197693 
	C587.993408,698.741455 587.232788,699.395264 585.834595,700.253540 
	C580.991150,702.800110 576.723633,705.040588 572.516846,707.389893 
	C538.281921,726.508545 501.658661,738.154968 462.700317,742.450562 
	C432.527679,745.777466 402.580750,744.156616 372.892059,737.929688 
	C364.120850,736.090027 355.428589,733.873962 346.700134,731.830383 
M328.370636,389.121033 
	C327.979279,388.588135 327.649963,387.993103 327.187683,387.531189 
	C305.677765,366.041931 284.159485,344.561005 262.621613,323.099731 
	C261.933167,322.413727 261.030060,321.943115 259.864288,320.861359 
	C255.623703,316.738708 251.383102,312.616089 246.866592,308.225189 
	C244.970291,310.654449 243.471298,312.421417 242.137650,314.305450 
	C205.965103,365.406158 191.601562,422.147491 200.501938,484.022583 
	C209.879807,549.217163 242.226074,601.251343 295.397736,639.949585 
	C307.398682,648.683838 321.094116,655.089844 334.526154,662.961670 
	C336.016602,663.683716 337.483795,664.459229 339.000977,665.119873 
	C363.637848,675.848022 389.513824,681.666504 416.196808,683.600464 
	C445.819733,685.747437 474.922607,682.497986 503.998352,673.130371 
	C527.622070,665.498230 549.265503,654.009033 569.378357,639.544495 
	C571.062500,638.333252 572.691711,637.045715 575.036011,635.271851 
	C570.306580,630.788513 566.015991,626.871277 561.891418,622.786377 
	C538.357544,599.478760 514.863159,576.131165 490.996582,552.222839 
	C489.980316,551.125488 488.999084,549.993164 487.942780,548.935852 
	C440.806396,501.751953 393.669159,454.568970 346.511780,407.406067 
	C342.069122,402.962830 337.494720,398.651337 332.667511,393.811981 
	C331.337006,392.462677 330.006500,391.113373 328.370636,389.121033 
M575.011230,266.518860 
	C571.385376,263.863861 567.821411,261.119049 564.123413,258.568665 
	C541.732056,243.125946 517.474792,231.744629 490.303802,224.873062 
	C473.201019,222.380890 456.169678,218.754257 438.978119,217.670990 
	C415.118530,216.167557 391.467926,219.876572 368.490906,226.296066 
	C356.246918,229.716858 344.582092,235.210815 331.954895,239.897797 
	C319.229431,247.541107 306.467834,255.125717 293.829742,262.910858 
	C292.436646,263.769043 291.750763,265.775269 291.076080,267.929260 
	C304.071991,281.040131 317.022003,294.196838 330.072083,307.253571 
	C377.829163,355.035126 425.606842,402.796173 473.414307,450.527313 
	C479.051544,456.155579 484.920929,461.551392 491.057953,467.633728 
	C491.490601,468.139954 491.891541,468.677795 492.360382,469.147949 
	C532.455872,509.354797 572.554016,549.558838 612.668518,589.746704 
	C613.918091,590.998535 615.340027,592.078308 616.857727,593.390564 
	C617.676270,592.453796 618.234497,591.872803 618.728210,591.241455 
	C630.385315,576.334656 639.999878,560.129639 647.030273,542.637329 
	C679.121887,462.790833 671.421448,386.889221 622.428894,315.982941 
	C613.262634,302.716766 600.773804,291.746429 589.528137,279.156738 
	C584.802429,275.111664 580.076782,271.066589 575.011230,266.518860 
z"/>
<path fill="#FAFBFB" opacity="1.000000" stroke="none" 
	d="
M346.807373,732.205200 
	C355.428589,733.873962 364.120850,736.090027 372.892059,737.929688 
	C402.580750,744.156616 432.527679,745.777466 462.700317,742.450562 
	C501.658661,738.154968 538.281921,726.508545 572.516846,707.389893 
	C576.723633,705.040588 580.991150,702.800110 585.609253,700.469177 
	C586.206604,705.908386 586.598572,711.387085 586.613159,716.866882 
	C586.669189,737.864502 586.536804,758.862854 586.646973,779.859985 
	C586.666443,783.573669 585.675537,785.307190 581.776978,786.453552 
	C554.458923,794.485840 526.542969,798.590210 498.181824,800.259338 
	C474.128510,801.674988 450.214294,800.896545 426.593384,795.910095 
	C395.052155,789.251709 369.119934,774.235168 353.005371,745.153076 
	C350.751709,741.085876 348.934082,736.777039 346.807373,732.205200 
z"/>
<path fill="#FBFBFC" opacity="1.000000" stroke="none" 
	d="
M490.957581,163.207443 
	C478.265472,162.010773 465.629272,159.779770 452.897614,158.834991 
	C414.320068,155.972229 376.567688,160.524963 339.812897,172.801636 
	C338.558655,173.220581 337.255402,173.492645 335.603333,173.832535 
	C337.423126,157.140701 340.135437,140.531067 347.130280,125.061554 
	C358.678467,99.522003 379.004120,84.384094 405.503693,76.825531 
	C429.494415,69.982567 454.116791,69.698296 478.757874,69.993004 
	C491.025452,70.139732 491.048553,70.419525 491.044403,82.841217 
	C491.035492,109.481224 490.996460,136.121216 490.957581,163.207443 
z"/>
<path fill="#FCFCFC" opacity="1.000000" stroke="none" 
	d="
M490.682678,467.054932 
	C484.920929,461.551392 479.051544,456.155579 473.414307,450.527313 
	C425.606842,402.796173 377.829163,355.035126 330.072083,307.253571 
	C317.022003,294.196838 304.071991,281.040131 291.287079,267.615173 
	C305.186035,267.301117 318.873993,267.301117 332.655884,267.301117 
	C332.655884,257.655426 332.655884,248.712234 332.655884,239.769043 
	C344.582092,235.210815 356.246918,229.716858 368.490906,226.296066 
	C391.467926,219.876572 415.118530,216.167557 438.978119,217.670990 
	C456.169678,218.754257 473.201019,222.380890 490.662537,225.472656 
	C491.021301,239.676208 491.021301,253.280136 491.021301,267.248352 
	C493.517914,267.372345 495.481812,267.549896 497.446106,267.554718 
	C512.434570,267.591522 527.423523,267.671448 542.411499,267.582611 
	C553.392029,267.517517 564.371277,267.217072 575.351074,267.021515 
	C580.076782,271.066589 584.802429,275.111664 589.538086,279.829498 
	C583.685425,316.897705 577.822754,353.293152 571.939514,389.816406 
	C570.143311,389.933746 568.842407,390.092926 567.541504,390.092682 
	C544.080383,390.088104 520.617188,390.219757 497.159637,389.920319 
	C492.151184,389.856384 490.725861,391.000305 490.778320,396.188843 
	C491.017181,419.808136 490.760895,443.432465 490.682678,467.054932 
z"/>
<path fill="#FCFCFC" opacity="1.000000" stroke="none" 
	d="
M503.230743,673.158142 
	C474.922607,682.497986 445.819733,685.747437 416.196808,683.600464 
	C389.513824,681.666504 363.637848,675.848022 339.000977,665.119873 
	C337.483795,664.459229 336.016602,663.683716 334.316925,662.262512 
	C333.705627,653.754395 332.968079,645.946045 332.953613,638.136353 
	C332.814697,563.173096 332.791748,488.209564 332.756561,413.246094 
	C332.753601,406.923645 332.902893,400.601166 332.981445,394.278687 
	C337.494720,398.651337 342.069122,402.962830 346.511780,407.406067 
	C393.669159,454.568970 440.806396,501.751953 487.942780,548.935852 
	C488.999084,549.993164 489.980316,551.125488 491.092377,552.986023 
	C491.267517,582.190369 491.036224,610.637451 491.570312,639.070068 
	C491.802551,651.432922 494.110474,663.592163 503.230743,673.158142 
z"/>
<path fill="#0379BF" opacity="1.000000" stroke="none" 
	d="
M332.824463,394.045349 
	C332.902893,400.601166 332.753601,406.923645 332.756561,413.246094 
	C332.791748,488.209564 332.814697,563.173096 332.953613,638.136353 
	C332.968079,645.946045 333.705627,653.754395 334.058594,662.065491 
	C321.094116,655.089844 307.398682,648.683838 295.397736,639.949585 
	C242.226074,601.251343 209.879807,549.217163 200.501938,484.022583 
	C191.601562,422.147491 205.965103,365.406158 242.137650,314.305450 
	C243.471298,312.421417 244.970291,310.654449 246.866592,308.225189 
	C251.383102,312.616089 255.623703,316.738708 259.996155,321.627991 
	C260.128052,344.799133 260.128052,367.203644 260.128052,389.764069 
	C283.473480,389.764069 306.074738,389.764069 328.675995,389.764069 
	C330.006500,391.113373 331.337006,392.462677 332.824463,394.045349 
z"/>
<path fill="#0279BE" opacity="1.000000" stroke="none" 
	d="
M490.870300,467.344360 
	C490.760895,443.432465 491.017181,419.808136 490.778320,396.188843 
	C490.725861,391.000305 492.151184,389.856384 497.159637,389.920319 
	C520.617188,390.219757 544.080383,390.088104 567.541504,390.092682 
	C568.842407,390.092926 570.143311,389.933746 571.939514,389.816406 
	C577.822754,353.293152 583.685425,316.897705 589.683167,280.109436 
	C600.773804,291.746429 613.262634,302.716766 622.428894,315.982941 
	C671.421448,386.889221 679.121887,462.790833 647.030273,542.637329 
	C639.999878,560.129639 630.385315,576.334656 618.728210,591.241455 
	C618.234497,591.872803 617.676270,592.453796 616.857727,593.390564 
	C615.340027,592.078308 613.918091,590.998535 612.668518,589.746704 
	C572.554016,549.558838 532.455872,509.354797 492.360382,469.147949 
	C491.891541,468.677795 491.490601,468.139954 490.870300,467.344360 
z"/>
<path fill="#057ABF" opacity="1.000000" stroke="none" 
	d="
M503.614563,673.144287 
	C494.110474,663.592163 491.802551,651.432922 491.570312,639.070068 
	C491.036224,610.637451 491.267517,582.190369 491.271790,553.273193 
	C514.863159,576.131165 538.357544,599.478760 561.891418,622.786377 
	C566.015991,626.871277 570.306580,630.788513 575.036011,635.271851 
	C572.691711,637.045715 571.062500,638.333252 569.378357,639.544495 
	C549.265503,654.009033 527.622070,665.498230 503.614563,673.144287 
z"/>
<path fill="#F8F8F8" opacity="1.000000" stroke="none" 
	d="
M328.523315,389.442566 
	C306.074738,389.764069 283.473480,389.764069 260.128052,389.764069 
	C260.128052,367.203644 260.128052,344.799133 260.177551,321.883362 
	C261.030060,321.943115 261.933167,322.413727 262.621613,323.099731 
	C284.159485,344.561005 305.677765,366.041931 327.187683,387.531189 
	C327.649963,387.993103 327.979279,388.588135 328.523315,389.442566 
z"/>
<path fill="#087BBF" opacity="1.000000" stroke="none" 
	d="
M575.181152,266.770203 
	C564.371277,267.217072 553.392029,267.517517 542.411499,267.582611 
	C527.423523,267.671448 512.434570,267.591522 497.446106,267.554718 
	C495.481812,267.549896 493.517914,267.372345 491.021301,267.248352 
	C491.021301,253.280136 491.021301,239.676208 491.026428,225.613831 
	C517.474792,231.744629 541.732056,243.125946 564.123413,258.568665 
	C567.821411,261.119049 571.385376,263.863861 575.181152,266.770203 
z"/>
<path fill="#0878BD" opacity="1.000000" stroke="none" 
	d="
M332.305389,239.833420 
	C332.655884,248.712234 332.655884,257.655426 332.655884,267.301117 
	C318.873993,267.301117 305.186035,267.301117 291.117493,267.275085 
	C291.750763,265.775269 292.436646,263.769043 293.829742,262.910858 
	C306.467834,255.125717 319.229431,247.541107 332.305389,239.833420 
z"/>
</svg>